<svg width="34" height="35" viewBox="0 0 34 35" fill="none" xmlns="http://www.w3.org/2000/svg">
<path d="M13.625 27.125C16.4068 27.1266 19.12 26.2615 21.3875 24.65L29.9375 33.2C30.1309 33.4579 30.3775 33.6712 30.6605 33.8255C30.9436 33.9798 31.2564 34.0715 31.578 34.0944C31.8995 34.1172 32.2223 34.0707 32.5243 33.958C32.8263 33.8453 33.1005 33.669 33.3285 33.441C33.5564 33.2131 33.7327 32.9388 33.8455 32.6368C33.9582 32.3348 34.0047 32.0121 33.9818 31.6905C33.959 31.369 33.8673 31.0561 33.713 30.7731C33.5587 30.49 33.3454 30.2435 33.0875 30.05L24.5375 21.5C26.3058 19.0378 27.1939 16.052 27.0589 13.0236C26.9238 9.9952 25.7734 7.10037 23.7929 4.80533C21.8124 2.51028 19.1171 0.948605 16.1411 0.371785C13.165 -0.205034 10.0814 0.23658 7.38691 1.62551C4.69238 3.01444 2.54375 5.26984 1.28702 8.0285C0.0302915 10.7872 -0.261378 13.8885 0.458976 16.8331C1.17933 19.7777 2.86978 22.3942 5.2581 24.2611C7.64642 26.1281 10.5936 27.1369 13.625 27.125ZM13.625 4.62503C15.405 4.62503 17.1451 5.15288 18.6251 6.14181C20.1052 7.13074 21.2587 8.53635 21.9399 10.1809C22.6211 11.8254 22.7993 13.635 22.4521 15.3808C22.1048 17.1267 21.2476 18.7303 19.989 19.989C18.7303 21.2477 17.1266 22.1048 15.3808 22.4521C13.635 22.7994 11.8254 22.6211 10.1809 21.94C8.53631 21.2588 7.13071 20.1052 6.14177 18.6252C5.15284 17.1451 4.625 15.4051 4.625 13.625C4.625 11.2381 5.57321 8.9489 7.26104 7.26108C8.94887 5.57325 11.2381 4.62503 13.625 4.62503Z" fill="#10375C"/>
</svg>
