<svg width="72" height="51" viewBox="0 0 72 51" fill="none" xmlns="http://www.w3.org/2000/svg">
<path d="M65.25 0.875H6.75C4.95979 0.875 3.2429 1.58616 1.97703 2.85203C0.711159 4.1179 0 5.83479 0 7.625L0 43.625C0 45.4152 0.711159 47.1321 1.97703 48.398C3.2429 49.6638 4.95979 50.375 6.75 50.375H65.25C67.0402 50.375 68.7571 49.6638 70.023 48.398C71.2888 47.1321 72 45.4152 72 43.625V7.625C72 5.83479 71.2888 4.1179 70.023 2.85203C68.7571 1.58616 67.0402 0.875 65.25 0.875ZM48.375 29H39.375V38H32.625V29H23.625V22.25H32.625V13.25H39.375V22.25H48.375V29Z" fill="#10375C"/>
</svg>
