<svg width="28" height="11" viewBox="0 0 28 11" fill="none" xmlns="http://www.w3.org/2000/svg">
<path d="M5 10.625V7.25C5 6.65326 5.23705 6.08097 5.65901 5.65901C6.08097 5.23705 6.65326 5 7.25 5H20.75C21.3467 5 21.919 5.23705 22.341 5.65901C22.7629 6.08097 23 6.65326 23 7.25V10.625H27.5V7.25C27.4979 5.46043 26.7861 3.74475 25.5207 2.47933C24.2552 1.21391 22.5396 0.502084 20.75 0.5H7.25C5.46043 0.502084 3.74475 1.21391 2.47933 2.47933C1.21391 3.74475 0.502084 5.46043 0.5 7.25V10.625H5Z" fill="#10375C"/>
</svg>
