<svg width="43" height="55" viewBox="0 0 43 55" fill="none" xmlns="http://www.w3.org/2000/svg">
<path d="M31.625 49.625C31.6059 46.1092 32.6233 42.6658 34.55 39.725C34.3719 39.1039 34.2959 38.458 34.325 37.8125V36.125C36.6217 34.0066 38.2617 31.2733 39.05 28.25C41.8625 28.25 42.425 22.5125 42.425 21.725C42.425 20.9375 42.5375 17.45 39.725 17.45C45.8 2.93747 29.825 -4.71252 17.9 3.61248C12.95 3.61248 12.6125 10.25 14.4125 17.45C11.6 17.45 11.7125 20.825 11.7125 21.725C11.7125 22.625 12.3875 28.25 15.0875 28.25C15.8817 31.2708 17.5208 34.0026 19.8125 36.125V37.925C19.8125 39.725 19.8125 42.425 10.7 44.225C1.5875 46.025 0.125 54.125 0.125 54.125H32.1875C31.8098 52.6549 31.6208 51.1428 31.625 49.625Z" fill="#10375C"/>
</svg>
